<svg xmlns="http://www.w3.org/2000/svg" xmlns:xlink="http://www.w3.org/1999/xlink" width="500" zoomAndPan="magnify" viewBox="0 0 375 374.999991" height="500" preserveAspectRatio="xMidYMid meet" version="1.0"><defs><g/></defs><rect x="-37.5" width="450" fill="#ffffff" y="-37.499999" height="449.999989" fill-opacity="1"/><rect x="-37.5" width="450" fill="#ffffff" y="-37.499999" height="449.999989" fill-opacity="1"/><rect x="-37.5" width="450" fill="#fdfdfd" y="-37.499999" height="449.999989" fill-opacity="1"/><g fill="#000000" fill-opacity="1"><g transform="translate(55.352708, 269.393021)"><g><path d="M 162.140625 -23.265625 C 155.304688 -15.085938 145.648438 -8.742188 133.171875 -4.234375 C 120.691406 0.273438 106.863281 2.53125 91.6875 2.53125 C 75.757812 2.53125 61.785156 -0.945312 49.765625 -7.90625 C 37.753906 -14.863281 28.476562 -24.957031 21.9375 -38.1875 C 15.40625 -51.425781 12.054688 -66.984375 11.890625 -84.859375 L 11.890625 -97.390625 C 11.890625 -115.765625 14.988281 -131.675781 21.1875 -145.125 C 27.382812 -158.570312 36.320312 -168.859375 48 -175.984375 C 59.675781 -183.109375 73.351562 -186.671875 89.03125 -186.671875 C 110.875 -186.671875 127.945312 -181.460938 140.25 -171.046875 C 152.5625 -160.640625 159.859375 -145.488281 162.140625 -125.59375 L 125.203125 -125.59375 C 123.515625 -136.125 119.785156 -143.832031 114.015625 -148.71875 C 108.242188 -153.613281 100.296875 -156.0625 90.171875 -156.0625 C 77.273438 -156.0625 67.453125 -151.210938 60.703125 -141.515625 C 53.960938 -131.828125 50.550781 -117.410156 50.46875 -98.265625 L 50.46875 -86.5 C 50.46875 -67.195312 54.132812 -52.613281 61.46875 -42.75 C 68.800781 -32.882812 79.550781 -27.953125 93.71875 -27.953125 C 107.96875 -27.953125 118.128906 -30.988281 124.203125 -37.0625 L 124.203125 -68.796875 L 89.671875 -68.796875 L 89.671875 -96.75 L 162.140625 -96.75 Z M 162.140625 -23.265625 "/></g></g></g><g fill="#000000" fill-opacity="1"><g transform="translate(163.171986, 269.393021)"><g><path d="M 16.4375 0 L 16.4375 -184.140625 L 80.9375 -184.140625 C 103.28125 -184.140625 120.226562 -179.859375 131.78125 -171.296875 C 143.332031 -162.742188 149.109375 -150.207031 149.109375 -133.6875 C 149.109375 -124.664062 146.789062 -116.71875 142.15625 -109.84375 C 137.519531 -102.96875 131.070312 -97.929688 122.8125 -94.734375 C 132.25 -92.367188 139.6875 -87.601562 145.125 -80.4375 C 150.5625 -73.269531 153.28125 -64.5 153.28125 -54.125 C 153.28125 -36.425781 147.628906 -23.019531 136.328125 -13.90625 C 125.035156 -4.800781 108.9375 -0.164062 88.03125 0 Z M 54.390625 -80.1875 L 54.390625 -30.484375 L 86.890625 -30.484375 C 95.828125 -30.484375 102.800781 -32.609375 107.8125 -36.859375 C 112.832031 -41.117188 115.34375 -47.003906 115.34375 -54.515625 C 115.34375 -71.367188 106.613281 -79.925781 89.15625 -80.1875 Z M 54.390625 -107 L 82.453125 -107 C 101.597656 -107.332031 111.171875 -114.960938 111.171875 -129.890625 C 111.171875 -138.234375 108.742188 -144.238281 103.890625 -147.90625 C 99.046875 -151.570312 91.394531 -153.40625 80.9375 -153.40625 L 54.390625 -153.40625 Z M 54.390625 -107 "/></g></g></g><path stroke-linecap="round" transform="matrix(0.194125, -0.724484, 0.728237, 0.195131, 213.093346, 279.38468)" fill="none" stroke-linejoin="miter" d="M 5.998243 0.0000796849 L 276.993266 -0.00188719 " stroke="#fdfdfd" stroke-width="12" stroke-opacity="1" stroke-miterlimit="4"/><path stroke-linecap="round" transform="matrix(0.000000000000000046, -0.750041, 0.753927, 0.000000000000000046, 176.978285, 265.982824)" fill="none" stroke-linejoin="miter" d="M 5.997602 -0.00228454 L 276.993086 -0.00228454 " stroke="#fdfdfd" stroke-width="12" stroke-opacity="1" stroke-miterlimit="4"/></svg>